# Blender v2.79 (sub 0) OBJ File: 'table.blend'
# www.blender.org
mtllib table.mtl
v 1.000000 -1.030171 -2.230684
v 1.000000 -1.030171 2.230681
v -1.000000 -1.030171 2.312845
v -1.000000 -1.030171 -2.312850
v 1.000000 -0.817928 -2.230676
v 0.999999 -0.817928 2.230682
v -1.000000 -0.817928 2.312844
v -1.000000 -0.817928 -2.312844
v 0.000000 -1.030171 2.271763
v 0.500000 -1.030171 2.251222
v 0.499999 -0.817928 2.251223
v -0.500000 -1.030171 2.292304
v -0.500000 -0.817928 2.292304
v 0.250000 -1.030171 2.261492
v 0.249999 -0.817928 2.261493
v -0.250000 -1.030171 2.282033
v -0.250001 -0.817928 2.282033
vn 0.0000 -1.0000 0.0000
vn 1.0000 -0.0000 0.0000
vn 0.0410 0.0000 0.9992
vn -1.0000 -0.0000 -0.0000
vn 0.0410 0.0000 -0.9992
usemtl Material
s off
f 16//1 12//1 4//1
f 5//2 2//2 1//2
f 13//3 3//3 12//3
f 3//4 8//4 4//4
f 1//5 8//5 5//5
f 6//3 10//3 2//3
f 17//3 12//3 16//3
f 11//3 14//3 10//3
f 4//1 1//1 9//1
f 1//1 2//1 10//1
f 14//1 1//1 10//1
f 14//1 9//1 1//1
f 9//1 16//1 4//1
f 12//1 3//1 4//1
f 5//2 6//2 2//2
f 13//3 7//3 3//3
f 3//4 7//4 8//4
f 1//5 4//5 8//5
f 6//3 11//3 10//3
f 17//3 13//3 12//3
f 11//3 15//3 14//3
