# Blender v2.79 (sub 0) OBJ File: 'table.blend'
# www.blender.org
mtllib table_with_guards.mtl
o table_with_guards_Cube.003
v 6.000000 -0.250002 -4.000000
v -3.999996 -0.250002 -4.000001
v -4.000001 -0.250002 3.999999
v 6.000000 -0.250002 4.000000
v 8.000000 -0.250002 0.800001
v 8.000000 -0.250002 -0.799999
v -3.999996 -0.250002 -4.500001
v -3.999996 -0.250001 -5.000001
v -4.499996 -0.250002 -5.000001
v -5.047517 -0.250002 -4.956911
v -5.581556 -0.250002 -4.828700
v -6.088964 -0.250002 -4.618525
v -6.557245 -0.250002 -4.331562
v -6.974871 -0.250002 -3.974876
v -7.331556 -0.250003 -3.557250
v -7.618520 -0.250003 -3.088969
v -7.828695 -0.250003 -2.581562
v -7.956907 -0.250003 -2.047523
v -7.999998 -0.250003 -1.500002
v -7.999999 -0.250003 0.499998
v -7.956908 -0.250003 1.047518
v -7.828697 -0.250003 1.581558
v -7.618523 -0.250003 2.088965
v -7.331560 -0.250003 2.557246
v -6.974874 -0.250003 2.974872
v -6.557249 -0.250002 3.331558
v -6.088968 -0.250002 3.618521
v -5.581560 -0.250002 3.828696
v -5.047522 -0.250002 3.956908
v -4.500001 -0.250002 3.999999
v -4.000003 0.249998 3.999999
v 5.999995 0.249998 4.000003
v 7.999995 0.249998 0.800001
v 8.000004 0.249998 -0.799999
v 6.000004 0.249998 -3.999998
v 6.000000 -0.250002 -4.500000
v 6.000000 -0.250001 -5.000000
v -3.999999 0.249999 -5.000000
v -4.499999 0.249998 -5.000000
v -5.047520 0.249998 -4.956909
v -5.581559 0.249998 -4.828698
v -6.088966 0.249998 -4.618524
v -6.557248 0.249998 -4.331560
v -6.974874 0.249998 -3.974874
v -7.331559 0.249997 -3.557249
v -7.618523 0.249997 -3.088968
v -7.828698 0.249997 -2.581560
v -7.956910 0.249997 -2.047522
v -8.000001 0.249997 -1.500001
v -8.000001 0.249997 0.499998
v -7.956910 0.249997 1.047518
v -7.828699 0.249997 1.581558
v -7.618525 0.249997 2.088965
v -7.331562 0.249997 2.557246
v -6.974876 0.249997 2.974872
v -6.557250 0.249998 3.331558
v -6.088969 0.249998 3.618520
v -5.581562 0.249998 3.828696
v -5.047523 0.249998 3.956907
v -4.500003 0.249998 3.999998
v 6.000004 0.249998 -4.499998
v 6.000004 0.249999 -4.999998
v 6.000004 0.249998 -4.499998
v 6.000000 -0.250002 -4.500000
v -3.999996 -0.250002 -4.500001
v -3.999999 0.249998 -4.500000
v -3.999999 0.249998 -4.000000
v 6.000000 -0.250002 -4.000000
v -3.999996 -0.250002 -4.000001
v 5.146469 0.250000 3.140271
v 5.146469 -0.250000 3.140271
v 4.569068 -0.250000 3.140289
v 4.569068 0.250000 3.140289
v 5.487265 0.250000 3.352030
v 5.512225 0.250000 3.266827
v 5.459446 0.250000 3.234416
v 4.348579 0.250000 3.349606
v 5.217851 0.250000 3.131485
v 5.217851 -0.250000 3.131485
v 5.487265 -0.250000 3.352030
v 4.348579 -0.250000 3.349606
v 5.558672 0.250000 3.342310
v 6.361991 0.250000 1.441658
v 5.403858 0.250000 3.001922
v 5.744719 0.250000 3.211239
v 6.702852 0.250000 1.650975
v 5.291832 0.250000 3.102107
v 5.291832 -0.250000 3.102107
v 5.403858 -0.250000 3.001922
v 6.361991 -0.250000 1.441658
v 6.702852 -0.250000 1.650975
v 5.744719 -0.250000 3.211239
v 5.558672 -0.250000 3.342310
v 5.632674 0.250000 3.312140
v 5.357149 0.250000 3.056611
v 5.698005 0.250000 3.266114
v 5.357149 -0.250000 3.056611
v 5.698005 -0.250000 3.266114
v 5.632674 -0.250000 3.312140
v 5.146469 0.250000 -3.140271
v 4.569068 0.250000 -3.140289
v 4.569068 -0.250000 -3.140289
v 5.146469 -0.250000 -3.140271
v 5.217851 0.250000 -3.131485
v 5.217851 -0.250000 -3.131485
v 5.487265 0.250000 -3.352031
v 4.348579 0.250000 -3.349606
v 5.459446 0.250000 -3.234416
v 5.512225 0.250000 -3.266827
v 4.348579 -0.250000 -3.349606
v 5.487265 -0.250000 -3.352030
v 5.291832 0.250000 -3.102107
v 5.291832 -0.250000 -3.102107
v 5.558672 0.250000 -3.342310
v 6.361991 0.250000 -1.441658
v 6.702852 0.250000 -1.650975
v 5.744719 0.250000 -3.211239
v 5.403858 0.250000 -3.001922
v 5.558672 -0.250000 -3.342310
v 5.744719 -0.250000 -3.211239
v 6.702852 -0.250000 -1.650975
v 6.361991 -0.250000 -1.441658
v 5.403858 -0.250000 -3.001922
v 5.357149 0.250000 -3.056611
v 5.357149 -0.250000 -3.056611
v 5.632674 0.250000 -3.312140
v 5.698005 0.250000 -3.266114
v 5.632674 -0.250000 -3.312140
v 5.698005 -0.250000 -3.266114
vn 0.0000 1.0000 0.0000
vn -0.8480 -0.0000 -0.5300
vn -0.8480 0.0000 0.5300
vn -1.0000 0.0000 0.0000
vn 0.0000 0.0000 -1.0000
vn 1.0000 -0.0000 -0.0000
vn -0.0000 -0.0000 1.0000
vn -0.6885 0.0000 -0.7252
vn 0.5233 0.0000 -0.8522
vn -0.1222 0.0000 0.9925
vn -0.6885 0.0000 0.7252
vn -0.3691 0.0000 0.9294
vn -0.0021 -0.0000 -1.0000
vn -0.5716 0.0000 0.8206
vn 0.1349 0.0000 -0.9909
vn -0.8522 0.0000 0.5233
vn 0.5233 0.0000 0.8522
vn 0.8522 0.0000 -0.5233
vn -0.7604 0.0000 0.6495
vn 0.3775 -0.0000 -0.9260
vn 0.7615 0.0000 -0.6482
vn 0.5759 0.0000 -0.8175
vn 0.0000 0.7071 -0.7071
vn -0.4848 0.0000 -0.8746
vn -0.3832 0.6125 -0.6913
vn 0.0281 0.6984 0.7152
vn 0.0000 0.7071 0.7071
vn 0.1132 0.6898 0.7150
vn 0.0392 0.0000 0.9992
vn 0.1564 0.0000 0.9877
vn 0.2237 0.6898 0.6885
vn 0.3090 0.0000 0.9510
vn 0.3287 0.6898 0.6450
vn 0.4540 0.0000 0.8910
vn 0.4255 0.6898 0.5857
vn 0.5878 0.0000 0.8090
vn 0.5119 0.6898 0.5119
vn 0.7071 0.0000 0.7071
vn 0.5857 0.6898 0.4255
vn 0.8090 0.0000 0.5878
vn 0.6450 0.6898 0.3287
vn 0.8910 0.0000 0.4540
vn 0.6885 0.6898 0.2237
vn 0.9510 0.0000 0.3090
vn 0.7150 0.6898 0.1132
vn 0.9877 0.0000 0.1564
vn 0.7152 0.6984 0.0281
vn 0.9992 0.0000 0.0392
vn 0.7152 0.6984 -0.0281
vn 0.9992 0.0000 -0.0392
vn 0.9877 0.0000 -0.1564
vn 0.7150 0.6898 -0.1132
vn 0.9510 0.0000 -0.3090
vn 0.6885 0.6898 -0.2237
vn 0.8910 0.0000 -0.4540
vn 0.6450 0.6898 -0.3287
vn 0.8090 0.0000 -0.5878
vn 0.5857 0.6898 -0.4255
vn 0.7071 0.0000 -0.7071
vn 0.5119 0.6898 -0.5119
vn 0.5878 0.0000 -0.8090
vn 0.4255 0.6898 -0.5857
vn 0.4540 0.0000 -0.8910
vn 0.3287 0.6898 -0.6450
vn 0.3090 0.0000 -0.9510
vn 0.2237 0.6898 -0.6885
vn 0.1564 0.0000 -0.9877
vn 0.1132 0.6898 -0.7150
vn 0.0392 0.0000 -0.9992
vn 0.0281 0.6984 -0.7152
vn -0.5773 0.5773 0.5773
vn -0.7071 0.0000 0.7071
vn -0.0441 0.6936 -0.7190
vn -0.2871 0.6324 -0.7194
vn -0.0424 0.7211 -0.6915
vn -0.1816 0.6795 -0.7108
vn -0.1674 0.7369 -0.6549
vn 0.0480 0.6919 0.7203
vn -0.1922 0.9784 0.0764
vn 0.0460 0.7229 0.6894
vn -0.3462 0.6821 -0.6441
vn -0.3216 0.7339 -0.5983
vn 0.1894 0.6799 0.7084
vn 0.1747 0.7365 0.6535
vn -0.5569 0.7251 -0.4050
vn -0.0992 0.9045 -0.4147
vn -0.5854 0.6900 -0.4257
vn 0.7941 0.5773 -0.1899
vn 0.5574 0.7249 0.4047
vn 0.4147 0.9045 -0.0991
vn -0.4926 0.6795 -0.5437
vn -0.4539 0.7369 -0.5009
vn 0.3507 0.6825 0.6412
vn 0.3261 0.7335 0.5964
vn 0.5856 0.6901 0.4252
vn 0.4559 0.7365 0.4997
vn 0.4942 0.6799 0.5417
vn -0.2220 0.8008 -0.5563
vn -0.7782 0.5463 0.3096
vn -0.1899 0.5773 -0.7941
usemtl Material
s off
f 91//1 6//1 121//1
f 5//1 6//1 91//1
f 29//1 21//1 25//1
f 33//2 4//2 32//2
f 6//3 35//3 1//3
f 37//1 7//1 36//1
f 62//4 36//4 61//4
f 64//5 66//5 63//5
f 35//1 66//1 67//1
f 68//6 63//6 35//6
f 69//4 66//4 65//4
f 68//7 67//7 69//7
f 64//1 69//1 68//1
f 70//1 73//1 77//1
f 77//8 72//8 81//8
f 74//1 82//1 75//1
f 85//1 86//1 84//1
f 78//1 70//1 76//1
f 82//1 94//1 75//1
f 83//9 91//9 90//9
f 84//1 95//1 76//1
f 96//1 85//1 75//1
f 87//1 78//1 76//1
f 94//1 96//1 75//1
f 95//1 87//1 76//1
f 101//7 103//7 100//7
f 100//10 105//10 104//10
f 100//1 108//1 106//1
f 102//11 107//11 110//11
f 104//12 113//12 112//12
f 104//1 108//1 100//1
f 106//1 109//1 114//1
f 110//13 106//13 111//13
f 109//1 108//1 118//1
f 112//14 125//14 124//14
f 112//1 108//1 104//1
f 111//1 119//1 68//1
f 111//15 114//15 119//15
f 114//1 109//1 126//1
f 122//16 118//16 123//16
f 121//17 115//17 122//17
f 120//18 116//18 121//18
f 127//1 109//1 117//1
f 118//1 108//1 124//1
f 119//1 128//1 68//1
f 128//1 129//1 68//1
f 68//1 129//1 120//1
f 124//19 123//19 118//19
f 124//1 108//1 112//1
f 121//1 68//1 120//1
f 128//20 114//20 126//20
f 126//1 109//1 127//1
f 129//21 117//21 120//21
f 68//1 121//1 6//1
f 129//22 126//22 127//22
f 111//1 68//1 110//1
f 69//1 110//1 68//1
f 5//1 91//1 4//1
f 92//1 4//1 91//1
f 98//1 4//1 92//1
f 99//1 4//1 98//1
f 93//1 4//1 99//1
f 80//1 4//1 93//1
f 81//1 4//1 80//1
f 4//1 81//1 3//1
f 91//1 121//1 90//1
f 121//1 122//1 90//1
f 90//1 122//1 89//1
f 122//1 123//1 89//1
f 113//1 103//1 123//1
f 69//1 3//1 81//1
f 3//1 2//1 20//1
f 2//1 7//1 10//1
f 10//1 7//1 9//1
f 7//1 8//1 9//1
f 10//1 11//1 2//1
f 11//1 12//1 2//1
f 12//1 13//1 2//1
f 13//1 14//1 2//1
f 14//1 15//1 2//1
f 15//1 16//1 2//1
f 16//1 17//1 2//1
f 17//1 18//1 2//1
f 18//1 19//1 2//1
f 19//1 20//1 2//1
f 20//1 21//1 30//1
f 21//1 22//1 25//1
f 22//1 23//1 25//1
f 23//1 24//1 25//1
f 25//1 26//1 27//1
f 27//1 28//1 25//1
f 28//1 29//1 25//1
f 29//1 30//1 21//1
f 30//1 3//1 20//1
f 33//2 5//2 4//2
f 6//3 34//3 35//3
f 37//1 8//1 7//1
f 62//4 37//4 36//4
f 64//5 65//5 66//5
f 35//1 63//1 66//1
f 68//6 64//6 63//6
f 69//4 67//4 66//4
f 68//7 35//7 67//7
f 64//1 65//1 69//1
f 77//1 74//1 70//1
f 74//1 75//1 76//1
f 70//1 74//1 76//1
f 77//8 73//8 72//8
f 86//1 83//1 84//1
f 84//1 76//1 75//1
f 75//1 85//1 84//1
f 83//9 86//9 91//9
f 101//7 102//7 103//7
f 100//10 103//10 105//10
f 109//1 106//1 108//1
f 106//1 107//1 100//1
f 107//1 101//1 100//1
f 102//11 101//11 107//11
f 104//12 105//12 113//12
f 110//13 107//13 106//13
f 118//1 115//1 116//1
f 116//1 117//1 118//1
f 117//1 109//1 118//1
f 112//14 113//14 125//14
f 111//15 106//15 114//15
f 122//16 115//16 118//16
f 121//17 116//17 115//17
f 120//18 117//18 116//18
f 124//19 125//19 123//19
f 128//20 119//20 114//20
f 129//21 127//21 117//21
f 129//22 128//22 126//22
f 102//1 72//1 89//1
f 72//1 71//1 89//1
f 89//1 71//1 88//1
f 71//1 79//1 88//1
f 88//1 97//1 89//1
f 89//1 123//1 102//1
f 123//1 125//1 113//1
f 102//1 123//1 103//1
f 113//1 105//1 103//1
f 81//1 72//1 102//1
f 102//1 110//1 81//1
f 110//1 69//1 81//1
s 1
f 3//23 32//24 4//25
f 38//7 9//26 8//27
f 10//28 39//29 40//30
f 11//31 40//30 41//32
f 12//33 41//32 42//34
f 13//35 42//34 43//36
f 14//37 43//36 44//38
f 15//39 44//38 45//40
f 16//41 45//40 46//42
f 17//43 46//42 47//44
f 18//45 47//44 48//46
f 19//47 48//46 49//48
f 20//49 49//48 50//50
f 20//49 51//51 21//52
f 21//52 52//53 22//54
f 22//54 53//55 23//56
f 23//56 54//57 24//58
f 24//58 55//59 25//60
f 25//60 56//61 26//62
f 26//62 57//63 27//64
f 27//64 58//65 28//66
f 28//66 59//67 29//68
f 29//68 60//69 30//70
f 30//70 31//5 3//23
f 38//7 37//71 62//72
f 71//73 73//74 70//75
f 79//76 70//75 78//77
f 74//78 81//79 80//80
f 88//81 78//77 87//82
f 82//83 80//80 93//84
f 84//85 90//86 89//87
f 86//88 92//89 91//90
f 97//91 87//82 95//92
f 94//93 93//84 99//94
f 89//87 95//92 84//85
f 85//95 98//96 92//89
f 96//97 99//94 98//96
f 3//23 31//5 32//24
f 38//7 39//29 9//26
f 10//28 9//26 39//29
f 11//31 10//28 40//30
f 12//33 11//31 41//32
f 13//35 12//33 42//34
f 14//37 13//35 43//36
f 15//39 14//37 44//38
f 16//41 15//39 45//40
f 17//43 16//41 46//42
f 18//45 17//43 47//44
f 19//47 18//45 48//46
f 20//49 19//47 49//48
f 20//49 50//50 51//51
f 21//52 51//51 52//53
f 22//54 52//53 53//55
f 23//56 53//55 54//57
f 24//58 54//57 55//59
f 25//60 55//59 56//61
f 26//62 56//61 57//63
f 27//64 57//63 58//65
f 28//66 58//65 59//67
f 29//68 59//67 60//69
f 30//70 60//69 31//5
f 38//7 8//27 37//71
f 71//73 72//98 73//74
f 79//76 71//73 70//75
f 74//78 77//99 81//79
f 88//81 79//76 78//77
f 82//83 74//78 80//80
f 84//85 83//100 90//86
f 86//88 85//95 92//89
f 97//91 88//81 87//82
f 94//93 82//83 93//84
f 89//87 97//91 95//92
f 85//95 96//97 98//96
f 96//97 94//93 99//94
