# Blender v2.79 (sub 0) OBJ File: 'table2.blend'
# www.blender.org
mtllib table2.mtl
v -0.090082 0.328297 6.906919
v -0.090082 0.651289 6.906919
v -0.090082 0.328297 -5.487930
v -0.090082 0.651289 -5.487930
v 0.360267 0.328297 6.906919
v 0.360267 0.651289 6.906919
v 0.360267 0.328297 -5.487930
v 0.360267 0.651289 -5.487930
vn -1.0000 0.0000 0.0000
vn 0.0000 0.0000 -1.0000
vn 1.0000 0.0000 0.0000
vn 0.0000 0.0000 1.0000
vn 0.0000 -1.0000 0.0000
vn 0.0000 1.0000 0.0000
usemtl Material.001
s off
f 2//1 3//1 1//1
f 4//2 7//2 3//2
f 8//3 5//3 7//3
f 6//4 1//4 5//4
f 7//5 1//5 3//5
f 4//6 6//6 8//6
f 2//1 4//1 3//1
f 4//2 8//2 7//2
f 8//3 6//3 5//3
f 6//4 2//4 1//4
f 7//5 5//5 1//5
f 4//6 2//6 6//6
v 5.059718 0.883852 8.192069
v 5.061435 0.314038 8.192069
v 5.059718 0.883852 -5.539055
v 5.061435 0.314038 -5.539055
v -0.490487 0.867134 8.192069
v -0.488770 0.297320 8.192069
v -0.490487 0.867134 -5.539055
v -0.488770 0.297320 -5.539055
vn -1.0000 -0.0030 0.0000
vn 0.0000 0.0000 1.0000
vn 1.0000 0.0030 0.0000
vn 0.0000 0.0000 -1.0000
vn -0.0030 1.0000 0.0000
usemtl None
s off
f 11//7 10//7 9//7
f 15//8 12//8 11//8
f 13//9 16//9 15//9
f 9//10 14//10 13//10
f 14//11 12//11 16//11
f 11//7 12//7 10//7
f 15//8 16//8 12//8
f 13//9 14//9 16//9
f 9//10 10//10 14//10
f 14//11 10//11 12//11
